/* XPM */
static char *xpm_[] = {
/* columns rows colors chars-per-pixel */
"60 60 203 2 ",
"   c #2B121B",
".  c #0F0D24",
"X  c #100E26",
"o  c #150C28",
"O  c #170C29",
"+  c #17112A",
"@  c #16152B",
"#  c #1C1128",
"$  c #1C112B",
"%  c #1A152D",
"&  c #1D1A2E",
"*  c #1C1A30",
"=  c #240B27",
"-  c #2F0A25",
";  c #2C0F2A",
":  c #310A27",
">  c #3E0926",
",  c #380B29",
"<  c #20142A",
"1  c #27122E",
"2  c #241A2E",
"3  c #2F182C",
"4  c #3F1B22",
"5  c #3D1B2A",
"6  c #2C1732",
"7  c #231932",
"8  c #201A33",
"9  c #221C37",
"0  c #201E38",
"q  c #211F3A",
"w  c #381C35",
"e  c #37202B",
"r  c #36272C",
"t  c #2F273B",
"y  c #2E263F",
"u  c #732C1B",
"i  c #7C2C19",
"p  c #430E29",
"a  c #4C0E2A",
"s  c #570D28",
"d  c #59112B",
"f  c #441E37",
"g  c #6B0A24",
"h  c #6B1A2F",
"j  c #611730",
"k  c #42292A",
"l  c #442B2C",
"z  c #412733",
"x  c #533537",
"c  c #75253B",
"v  c #704636",
"b  c #2D2B49",
"n  c #302E4A",
"m  c #343048",
"M  c #3C374B",
"N  c #333552",
"B  c #343750",
"V  c #3E3C55",
"C  c #383F58",
"Z  c #393F59",
"A  c #3B3D5B",
"S  c #3F3F60",
"D  c #5D2B42",
"F  c #413F56",
"G  c #7A2C40",
"H  c #364156",
"J  c #4E4052",
"K  c #43425F",
"L  c #43465E",
"P  c #564953",
"I  c #7C514E",
"U  c #664D57",
"Y  c #6A5B5B",
"T  c #4C4B62",
"R  c #4E4E61",
"E  c #484865",
"W  c #504E60",
"Q  c #4F5060",
"!  c #5C5F6E",
"~  c #4B4E72",
"^  c #4C5671",
"/  c #505074",
"(  c #515376",
")  c #55577A",
"_  c #585A79",
"`  c #5C5E7C",
"'  c #5F6977",
"]  c #53697C",
"[  c #6C686D",
"{  c #78676A",
"}  c #666475",
"|  c #6E6E76",
" . c #812F1D",
".. c #AC0F22",
"X. c #B41D2A",
"o. c #822337",
"O. c #8D2C3C",
"+. c #94323F",
"@. c #D61221",
"#. c #DB252C",
"$. c #8C4026",
"%. c #874730",
"&. c #BD5827",
"*. c #CA5113",
"=. c #D5793C",
"-. c #EA7A2B",
";. c #8B3644",
":. c #A24B53",
">. c #94616D",
",. c #8E7A6C",
"<. c #9B7E63",
"1. c #927373",
"2. c #917E70",
"3. c #D0514F",
"4. c #F28130",
"5. c #958376",
"6. c #A6896A",
"7. c #A8887C",
"8. c #AA9170",
"9. c #CE8C5A",
"0. c #D19375",
"q. c #E7A769",
"w. c #E6B17D",
"e. c #5C7183",
"r. c #636983",
"t. c #666984",
"y. c #6F7088",
"u. c #657E8C",
"i. c #777585",
"p. c #7D7D8A",
"a. c #A17A81",
"s. c #6A8997",
"d. c #7695A0",
"f. c #83828E",
"g. c #8A878A",
"h. c #8F8C98",
"j. c #81969E",
"k. c #A6978B",
"l. c #B68B90",
"z. c #BAA184",
"x. c #BDA588",
"c. c #B5A598",
"v. c #B7A699",
"b. c #B9A89D",
"n. c #8090A1",
"m. c #8493A8",
"M. c #9695A1",
"N. c #9C9FA9",
"B. c #879AB1",
"V. c #8FA0B8",
"C. c #96B1B1",
"Z. c #A8ACB0",
"A. c #A3BDBA",
"S. c #B3B3BC",
"D. c #B3BBBC",
"F. c #B9BBBE",
"G. c #C3AD91",
"H. c #C6B195",
"J. c #C7ABA8",
"K. c #CAB1AC",
"L. c #CBB5B6",
"P. c #BCC1B5",
"I. c #C3C5BB",
"U. c #D9CFB2",
"Y. c #DDD4B4",
"T. c #BDBEC2",
"R. c #BFD6C8",
"E. c #B6C5D0",
"W. c #C8CEC8",
"Q. c #CACBCF",
"!. c #DDCAC5",
"~. c #C0D7C9",
"^. c #C2D9CA",
"/. c #C6DCCD",
"(. c #C7D4DC",
"). c #D8D2D5",
"_. c #E2CAC8",
"`. c #E3D0CC",
"'. c #EAD8D0",
"]. c #CFE0D6",
"[. c #DCE4DD",
"{. c #E9E6C7",
"}. c #EBE9CB",
"|. c #EDEBCF",
" X c #EEE1DC",
".X c #F5F3DF",
"XX c #C9D8E0",
"oX c #E3E5E7",
"OX c #E3EEE5",
"+X c #E6EEEE",
"@X c #EBECEE",
"#X c #ECEDEE",
"$X c #F6F5E2",
"%X c #F8F7E5",
"&X c #FCFBEF",
"*X c #E7F0F0",
"=X c gray94",
"-X c #F4F5F2",
";X c #F6F9F6",
":X c #F8FCFB",
">X c #FEFFF8",
",X c #FCFEFD",
"<X c None",
/* pixels */
"<X<X<X<X<X<X<X<X<X<X<X<X<X<X<X<X<X<X<X<X<X<X<X<X<X<X<X<X<X<X<X<X<X<X<X<X<X<X<X<X<X<X<X<X<X<X<X<X<X<X<X<X<X<X<X<X<X<X<X<X",
"<X<X<X<X<X<X<X<X<X<X<X<X<X<X<X<X<X<X<X<X<X<X<X<X<X<X<X<X<X<X<X<X<X<X<X<X<X<X<X<X<X<X<X<X<X<X<X<X<X<X<X<X<X<X<X<X<X<X<X<X",
"<X<X<X<X<X<X<X<X<X<X<X<X<X<X<X<X<X<X<X<X<X<X<X<X<X<X<X<X<X<X<X<X<X<X<X<X<X<X<X<X<X<X<X<X<X<X<X<X<X<X<X<X<X<X<X<X<X<X<X<X",
"<X<X<X<X<X<X<X<X<X<X<X<X<X<X<X<X<X<X<X<X<X<X<X<X<X<X<X<X<X<X<X<X<X<X<X<X<X<X<X<X<X<X<X<X<X<X<X<X<X<X<X<X<X<X<X<X<X<X<X<X",
"<X<X<X<X<X<X<X<X<X<X<X<X<X<X<X<X<X<X<X<X<X<X<X<X<X<X<X<X<X<X<X<X<X<X<X<X<X<X<X<X<X<X<X<X<X<X<X<X<X<X<X<X<X<X<X<X<X<X<X<X",
"<X<X<X<X<X<X<X<X<X<X<X<X<X<X<X<X<X<X<X<X<X<X<X<X<X<X<X<X<X<X<X<X<X<X<X<X<X<X<X<X<X<X<X<X<X<X<X<X<X<X<X<X<X<X<X<X<X<X<X<X",
"<X<X<X<X<X<X<X<X<X<X<X<X<X<X<X<X<X<X<X<X<X<X<X<X<X<X<X<X<X<X<X<X<X<X<X<X<X<X<X<X<X<X<X<X<X<X<X<X<X<X<X<X<X<X<X<X<X<X<X<X",
"<X<X<X<X<X<X<X<X<X<X<X<X<X<X<X<X<X<X<X<X<X<X<X<X<X<X<X<X<X<X<X<X<X<X<X<X<X<X<X<X<X<X<X<X<X<X<X<X<X<X<X<X<X<X<X<X<X<X<X<X",
"<X<X<X<X<X<X<X<X<X<X<X<X<X<X<X<X<X<X<X<X<X<X<X<X<X<X<X<Xl k e < <X<X<X<X<X<X<X<X<X<X<X<X<X<X<X<X<X<X<X<X<X<X<X<X<X<X<X<X",
"<X<X<X<X<X<X<X<X<X<X<X<X<X<X<X<X<X<X<X<X<X<X<X<X<X<X<X<X9.=.%.z <X<X<X<X<X<X<X<X<X<X<X<X<X<X<X<X<X<X<X<X<X<X<X<X<X<X<X<X",
"<X<X<X<X<X<X<X<X<X<X<X<X<X<X<X<X<X<X<X<X<X<X<X<X<X<X<Xg.'.3.h ! ^ t <X<X<X<X<X<X<X<X<X<X<X<X<X<X<X<X<X<X<X<X<X<X<X<X<X<X",
"<X<X<X<X<X<X<X<X<X<X<X<X<X<X<X<X<X<X<X<X<X<X<X<X<X<X<Xm J f , y b 2 <X<X<X<X<X<X<X<X<X<X<X<X<X<X<X<X<X<X<X<X<X<X<X<X<X<X",
"<X<X<X<X<X<X<X<X<X<X<X<X<X<X<X<X<X<X<X<X<X<X<X<X<X<X<X7 p p , = 2 <X<X<X<X<X<X<X<X<X<X<X<X<X<X<X<X<X<X<X<X<X<X<X<X<X<X<X",
"<X<X<X<X<X<X<X<X<X<X<X<X<X<X<X<X<X<X<X<X<X<X<X<X<X<X<X5 X...s = <X<X<X<X<X<X<X<X<X<X<X<X<X<X<X<X<X<X<X<X<X<X<X<X<X<X<X<X",
"<X<X<X<X<X<X<X<X<X<X<X<X<X<X<X<X<X<X<X<X<X<X<X<X<X<X<X5 #.@.g - <X<X<X<X<X<X<X<X<X<X<X<X<X<X<X<X<X<X<X<X<X<X<X<X<X<X<X<X",
"<X<X<X<X<X<X<X<X<X<X<X<X<X<X<X<X<X<X<X<X<X<X<X<X<X<X<X3 X...g - <X<X<X<X<X<X<X<X<X<X<X<X<X<X<X<X<X<X<X<X<X<X<X<X<X<X<X<X",
"<X<X<X<X<X<X<X<X<X<X<X<X<X<X<X<X<X<X<X<X<X<X<X<X<X<X<X3 ;.G D 6 <X<X<X<X<X<X<X<X<X<X<X<X<X<X<X<X<X<X<X<X<X<X<X<X<X<X<X<X",
"<X<X<X<X<X<X<X<X<X<X<X<X<X<X<X<X<X<X<X<X<X<X<X<X<X<X<XM ).W.D.Q <X<X<X<X<X<X<X<X<X<X<X<X<X<X<X<X<X<X<X<X<X<X<X<X<X<X<X<X",
"<X<X<X<X<X<X<X<X<X<X<X<X<X<X<X<X<X<X<X<X<X<X<X<X<X<X<XF oX].R.! @ <X<X<X<X<X<X<X<X<X<X<X<X<X<X<X<X<X<X<X<X<X<X<X<X<X<X<X",
"<X<X<X<X<X<X<X<X<X<X<X<X<X<X<X<X<X<X<X<X<X<X<X<X<X<X<XF oX].R.n.H <X<X<X<X<X<X<X<X<X<X<X<X<X<X<X<X<X<X<X<X<X<X<X<X<X<X<X",
"<X<X<X<X<X<X<X<X<X<X<X<X<X<X<X<X<X<X<X<X<X<X<X<X<X<XT D.[./.R.A.s.B <X<X<X<X<X<X<X<X<X<X<X<X<X<X<X<X<X<X<X<X<X<X<X<X<X<X",
"<X<X<X<X<X<X<X<X<X<X<X<X<X<X<X<X<X<X<X<X<X<X<X<X<XR S.;X].R.~.^.C.] H <X<X<X<X<X<X<X<X<X<X<X<X<X<X<X<X<X<X<X<X<X<X<X<X<X",
"<X<X<X<X<X<X<X<X<X<X<X<X<X<X<X<X<X<X<X<X<X<X<X<XR Z.,XOX^.R.~./.C.s.] 0 <X<X<X<X<X<X<X<X<X<X<X<X<X<X<X<X<X<X<X<X<X<X<X<X",
"<X<X<X<X<X<X<X<X<X<X<X<X<X<X<X<X<X<X<X<X<X<X<X. | :X;X].^.^.^./.A.d.e.y <X<X<X<X<X<X<X<X<X<X<X<X<X<X<X<X<X<X<X<X<X<X<X<X",
"<X<X<X<X<X<X<X<X<X<X<X<X<X<X<X<X<X<X<X<X<X<X<XX ' OX-XI.P.P.P.I.Z.j.e.q <X<X<X<X<X<X<X<X<X<X<X<X<X<X<X<X<X<X<X<X<X<X<X<X",
"<X<X<X<X<X<X<X<X<X<X<X<X<X<X<X<X<X<X<X<X<X<X<XX ! [. X:.O.O.+.+.c U } q <X<X<X<X<X<X<X<X<X<X<X<X<X<X<X<X<X<X<X<X<X<X<X<X",
"<X<X<X<X<X<X<X<X<X<X<X<X<X<X<X<X<X<X<X<X<X<X<XX w a.`.G s a a p - 6 b % <X<X<X<X<X<X<X<X<X<X<X<X<X<X<X<X<X<X<X<X<X<X<X<X",
"<X<X<X<X<X<X<X<X<X<X<X<X<X<X<X<X<X<X<X<X<X<X<XX : >.!.c a > : = o O O + <X<X<X<X<X<X<X<X<X<X<X<X<X<X<X<X<X<X<X<X<X<X<X<X",
"<X<X<X<X<X<X<X<X<X<X<X<X<X<X<X<X<X<X<X<X<X<X<XX J J. Xl.1.1.1.{ Y U P % <X<X<X<X<X<X<X<X<X<X<X<X<X<X<X<X<X<X<X<X<X<X<X<X",
"<X<X<X<X<X<X<X<X<X<X<X<X<X<X<X<X<X<X<X<X<X<X<XX | &X>X>X|.{.}.U.H.x.5.8 <X<X<X<X<X<X<X<X<X<X<X<X<X<X<X<X<X<X<X<X<X<X<X<X",
"<X<X<X<X<X<X<X<X<X<X<X<X<X<X<X<X<X<X<X<X<X<X<XX [ %X>X&X}.{.{.U.G.z.2.8 <X<X<X<X<X<X<X<X<X<X<X<X<X<X<X<X<X<X<X<X<X<X<X<X",
"<X<X<X<X<X<X<X<X<X<X<X<X<X<X<X<X<X<X<X<X<X<X<XX [ .X>X&X}.{.{.U.G.z.2.8 <X<X<X<X<X2 t <X<X<X<X<X<X<X<X<X<X<X<X<X<X<X<X<X",
"<X<X<X<X<X<X<X<X<X<X<X<X<X<X<X<X<X<X<X<X<X<X<XX [ .X>X&X}.{.{.U.G.z.2.* <X<X<X<Xr <.5.x <X<X<X<X<X<X<X<X<X<X<X<X<X<X<X<X",
"<X<X<X<X<X<X<X<X<X<X<X<X<X<X<X<X<X<X<X<X<X<X<XX [ .X>X&X}.{.{.U.H.z.,.8 <X<X<Xr 8.q.4.$.2 <X<X<X<X<X<X<X<X<X<X<X<X<X<X<X",
"<X<X<X<X<X<X<X<X<X<X<X<X<X<X<X<X<X<X<X<X<X<X<XX [ $X>X&X}.{.{.U.H.z.,.8 <X<Xr 6.q.4.*.u % <X<X<X<X<X<X<X<X<X<X<X<X<X<X<X",
"<X<X<X<X<X<X<X<X<X<X<X<X<X<X<X<X<X<X<X<X<X<X<XX | %X,X>X|.}.}.Y.H.x.2.7 <Xv 6.q.4.*. .p <X<X<X<X<X<X<X<X<X<X<X<X<X<X<X<X",
"<X<X<X<X<X<X<X<X<X<X<X<X<X<X<X<X<X<X<X<X<X<X<XX P K._.L.b.v.v.k.5.,.Y 9 E 7.w.-.*.i 5 <X<X<X<X<X<X<X<X<X<X<X<X<X<X<X<X<X",
"<X<X<X<X<X<X<X<X<X<X<X<X<X<X<X<X<X<X<X<X<X<X<X@ ; G :.j a p , ; $ $ 9 } oX=X0.&.u k & <X<X<X<X<X<X<X<X<X<X<X<X<X<X<X<X<X",
"<X<X<X<X<X<X<X<X<X<X<X<X<X<X<X<X<X<X<X<X<X<X<X@ ; h ;.d > , : = O 9 } =X:X+X(.I   <X<X<X<X<X<X<X<X<X<X<X<X<X<X<X<X<X<X<X",
"<X<X<X<X<X<X<X<X<X<X<X<X<X<X<X<X<X<X<X<X<X<X<X& ; h +.d > , : = 9 i.#X:X*XXXB.B <X<X<X<X<X<X<X<X<X<X<X<X<X<X<X<X<X<X<X<X",
"<X<X<X<X<X<X<X<X<X<X<X<X<X<X<X<X<X<X<X<X<X<X<X& ; h O.d > , : 6 f.=X:X*X(.V.B <X<X<X<X<X<X<X<X<X<X<X<X<X<X<X<X<X<X<X<X<X",
"<X<X<X<X<X<X<X<X<X<X<X<X<X<X<X<X<X<X<X<X<X<X<X@ ; h O.s > - 1 M.=X:X@XXXV.A <X<X<X<X<X<X<X<X<X<X<X<X<X<X<X<X<X<X<X<X<X<X",
"<X<X<X<X<X<X<X<X<X<X<X<X<X<X<X<X<X<X<X<X<X<X<X@ ; j o.a , 1 h.@X:X+XXXB.H <X<X<X<X<X<X<X<X<X<X<X<X<X<X<X<X<X<X<X<X<X<X<X",
"<X<X<X<X<X<X<X<X<X<X<X<X<X<X<X<X<X<X<X<X<X<X<X* ; j o.p 6 h.@X,X+X(.B.H <X<X<X<X<X<X<X<X<X<X<X<X<X<X<X<X<X<X<X<X<X<X<X<X",
"<X<X<X<X<X<X<X<X<X<X<X<X<X<X<X<X<X<X<X<X<X<X<X& 1 a j w h.@X,X*X(.n.A $ <X<X<X<X<X<X<X<X<X<X<X<X<X<X<X<X<X<X<X<X<X<X<X<X",
"<X<X<X<X<X<X<X<X<X<X<X<X<X<X<X<X<X<X<X<X<X<X<Xb 9 1 f i.M.oX+X(.d.N o 1 * <X<X<X<X<X<X<X<X<X<X<X<X<X<X<X<X<X<X<X<X<X<X<X",
"<X<X<X<X<X<X<X<X<X<X<X<X<X<X<X<X<X<X<X^ ( ) / E n n p.Q.i.N.E.m.E n b n n N E ~ ~ ( <X<X<X<X<X<X<X<X<X<X<X<X<X<X<X<X<X<X",
"<X<X<X<X<X<X<X<X<X<X<X<X<X<X<X<X<X<X<XE _ t.r.r.A ! oXT.S.E r.L V t.` ` _ _ _ _ ` ` <XK <X<X<X<X<X<X<X<X<X<X<X<X<X<X<X<X",
"<X<X<X<X<X<X<X<X<X<X<X<X<X<X<X<X<X<X<X<X<X<X<X<X<XW F.Q.y.A 0 <X<X<X<X<X<X<X<X<X<X<X<X<X<X<X<X<X<X<X<X<X<X<X<X<X<X<X<X<X",
"<X<X<X<X<X<X<X<X<X<X<X<X<X<X<X<X<X<X<X<X<X<X<X<X<X<XF r.m 0 <X<X<X<X<X<X<X<X<X<X<X<X<X<X<X<X<X<X<X<X<X<X<X<X<X<X<X<X<X<X",
"<X<X<X<X<X<X<X<X<X<X<X<X<X<X<X<X<X<X<X<X<X<X<X<X<X<X<XL <X<X<X<X<X<X<X<X<X<X<X<X<X<X<X<X<X<X<X<X<X<X<X<X<X<X<X<X<X<X<X<X",
"<X<X<X<X<X<X<X<X<X<X<X<X<X<X<X<X<X<X<X<X<X<X<X<X<X<X<X<X<X<X<X<X<X<X<X<X<X<X<X<X<X<X<X<X<X<X<X<X<X<X<X<X<X<X<X<X<X<X<X<X",
"<X<X<X<X<X<X<X<X<X<X<X<X<X<X<X<X<X<X<X<X<X<X<X<X<X<X<X<X<X<X<X<X<X<X<X<X<X<X<X<X<X<X<X<X<X<X<X<X<X<X<X<X<X<X<X<X<X<X<X<X",
"<X<X<X<X<X<X<X<X<X<X<X<X<X<X<X<X<X<X<X<X<X<X<X<X<X<X<X<X<X<X<X<X<X<X<X<X<X<X<X<X<X<X<X<X<X<X<X<X<X<X<X<X<X<X<X<X<X<X<X<X",
"<X<X<X<X<X<X<X<X<X<X<X<X<X<X<X<X<X<X<X<X<X<X<X<X<X<X<X<X<X<X<X<X<X<X<X<X<X<X<X<X<X<X<X<X<X<X<X<X<X<X<X<X<X<X<X<X<X<X<X<X",
"<X<X<X<X<X<X<X<X<X<X<X<X<X<X<X<X<X<X<X<X<X<X<X<X<X<X<X<X<X<X<X<X<X<X<X<X<X<X<X<X<X<X<X<X<X<X<X<X<X<X<X<X<X<X<X<X<X<X<X<X",
"<X<X<X<X<X<X<X<X<X<X<X<X<X<X<X<X<X<X<X<X<X<X<X<X<X<X<X<X<X<X<X<X<X<X<X<X<X<X<X<X<X<X<X<X<X<X<X<X<X<X<X<X<X<X<X<X<X<X<X<X",
"<X<X<X<X<X<X<X<X<X<X<X<X<X<X<X<X<X<X<X<X<X<X<X<X<X<X<X<X<X<X<X<X<X<X<X<X<X<X<X<X<X<X<X<X<X<X<X<X<X<X<X<X<X<X<X<X<X<X<X<X",
"<X<X<X<X<X<X<X<X<X<X<X<X<X<X<X<X<X<X<X<X<X<X<X<X<X<X<X<X<X<X<X<X<X<X<X<X<X<X<X<X<X<X<X<X<X<X<X<X<X<X<X<X<X<X<X<X<X<X<X<X",
"<X<X<X<X<X<X<X<X<X<X<X<X<X<X<X<X<X<X<X<X<X<X<X<X<X<X<X<X<X<X<X<X<X<X<X<X<X<X<X<X<X<X<X<X<X<X<X<X<X<X<X<X<X<X<X<X<X<X<X<X"
};
