/* XPM */
static char *xpm_[] = {
/* columns rows colors chars-per-pixel */
"50 50 129 2 ",
"   c black",
".  c white",
"X  c #0E0E0E",
"o  c gray7",
"O  c gray2",
"+  c #5A5A5A",
"@  c gray9",
"#  c #CFD0CF",
"$  c #282828",
"%  c gray4",
"&  c #A0A3A2",
"*  c #DADCDB",
"=  c #9A9A98",
"-  c #FEFBCD",
";  c #A5A6A5",
":  c #FFFED8",
">  c #AEB0B0",
",  c gray18",
"<  c #565655",
"1  c #8A8B8A",
"2  c #91918F",
"3  c #EED19E",
"4  c #DDDFDF",
"5  c #D1D3D2",
"6  c #1D1D1C",
"7  c #868585",
"8  c #7A684F",
"9  c #F6F6F6",
"0  c #A8ACAD",
"q  c #727372",
"w  c #EAECEC",
"e  c #745F43",
"r  c #7C7E7E",
"t  c #C3C5C5",
"y  c #C0C0BF",
"u  c #766A5B",
"i  c #EBCB97",
"p  c #FBE4A4",
"a  c #CCCCCB",
"s  c #989694",
"d  c #D4D6D6",
"f  c #494948",
"g  c #6A6A69",
"h  c #F8F8F8",
"j  c #525251",
"k  c #F6E7C0",
"l  c #9D9E9E",
"z  c #B5B6B4",
"x  c #AAAAA8",
"c  c #FCEBAF",
"v  c #F4D9A2",
"b  c #D9D9D4",
"n  c #EFF1F2",
"m  c #E7E8E8",
"M  c gray13",
"N  c gray21",
"B  c #C8C9C8",
"V  c #FEF5BC",
"C  c #F5DDA9",
"Z  c #FEF1B7",
"A  c #F7E3B1",
"S  c #FFFBC3",
"D  c #FCF6C7",
"F  c #F6DA8F",
"G  c #EBD2A9",
"H  c #E3E4E4",
"J  c #B8BABA",
"K  c #424241",
"L  c gray24",
"P  c #F9FBFC",
"I  c #6B6761",
"U  c #EFE1C4",
"Y  c #939492",
"T  c #ACAEAF",
"R  c #E0E3E3",
"E  c #BABEBD",
"W  c #E4E6E6",
"Q  c #B6B1AB",
"!  c #F3D488",
"~  c #A9998C",
"^  c #CC8743",
"/  c #DDC097",
"(  c #C9B6A0",
")  c #B6A696",
"_  c #E8BC78",
"`  c #B8ADA0",
"'  c #DBAB72",
"]  c #A6A099",
"[  c #A17659",
"{  c #B68B68",
"}  c #7F8080",
"|  c #818283",
" . c #FEFEFE",
".. c #797875",
"X. c #5D5C5C",
"o. c gray38",
"O. c #7B7B7B",
"+. c #B1B7BA",
"@. c #E1D4C4",
"#. c #CCC3B8",
"$. c #CFBDAA",
"%. c #886E4D",
"&. c #EFCA7F",
"*. c #FCFDF1",
"=. c #FEFDE8",
"-. c #E8D3B6",
";. c #FCF8D8",
":. c #AD7C58",
">. c #BA9675",
",. c #DFB377",
"<. c #E3C69A",
"1. c #4C4C4C",
"2. c #606060",
"3. c #646464",
"4. c #F8E6BB",
"5. c #DAA468",
"6. c #E4DAC5",
"7. c #D5C9B8",
"8. c #B68459",
"9. c #E7CBA0",
"0. c #C0B7A9",
"q. c #8D8078",
"w. c #A18573",
"e. c #FEEDB0",
"r. c #BDAC8A",
"t. c #EAC481",
"y. c #C8976B",
"u. c #D69243",
"i. c #CA9E6E",
/* pixels */
"                                                                                                    ",
"                                                                                                    ",
"                                                                                                    ",
"                                    O O                                                             ",
"    , X.f %                       f T 0 K                                                           ",
"  o y . 9 o.                    O l . . = O     K $   $ 6                         $ M               ",
"  % q B y ,                       M g g M     N d j 6 E 1.                      6 J <               ",
"    O + g O     O , O     6 + M       $ o     = . o.g . 2.      O           , X 2.. 3.    o $       ",
"    f w 9 X.    o.a M   o z . T %   $ a +     2 . q < . q     N +         , 5 j <  .g   % = T O     ",
"  % z d 9 E @ M # h L   3. .. n K X 7 . ; @ X 7 . O.L h 7   @ J < X o o o s . O.K P | % f 9 d @     ",
"  M H w h h 5 5 9 P f   = .  . .4 # m . 9 5 # m . } $ n 1   K 9 * # # # # w . 7 N 9 w # * . 4 6     ",
"  @ B .  . .. . . 9 f   O.P  .. . .  .P P  .. . . } $ W o.  , * . . . . . . . 7 $ H . . . . * 6     ",
"    $ < + + + + + < @   X 2.H h r < < < 1.j + + < $ $ = o     , j + + X.+ + + , O K + + + + 1.%     ",
"              6 ..$     @ 2  .t X                   % o             $ q @               N q o       ",
"              q . & @ 3.a . 9 <               O                     s . ..            % > . g       ",
"              6 | N % K O.T q O   O o o @ @ 6 X.1 + , 6 @ @ @ %     , 7 M               N r @       ",
"                          O       j ; ) ` 0.2 7 9 n R d # t J 1 O                                   ",
"                                  I 7./ <.3 >.q.w 4 n P P w a > %                                   ",
"                                  I 6.9.i 3 i.w.R E J t * n R 0 %                                   ",
"                                  I 6.G 3 v ' w.R 4 w * t 5 b ; %                                   ",
"                                  I U C C p ,.{ 4 # w w n W y ; %                                   ",
"                                  u U A p c _ { b a W m w R Q & X                                   ",
"                                  u U c e.Z &.y.b 7.R H W 4 > & X                                   ",
"                                  u U Z V S ! 5.@.#.4 4 R 4 t & X                                   ",
"                                  u k V S - F ' @.#.* * 4 4 B & X                                   ",
"                                  u k D S : p _ @.$.b b * * B & X                                   ",
"                                  u k - - : c &.-.$.d b * d y l X                                   ",
"                                  8 k - : =.D ! -.$.5 d d 5 J = X                                   ",
"                                  8 k - : *.;.F G ( # 5 5 # z s X                                   ",
"                                  8 4.- : *.;.F G ( # # # a z Y X                                   ",
"                                  8 4.- : *.;.! -.( #.t B t > 2 X                                   ",
"                                  8 A - : =.A 5.( 0.Q x T t x 2 X                                   ",
"                                  8 A - : =.v ^ [ Q a # 5 # ; 1 X                                   ",
"                                  8 C D : : p u.>.) ] ; T J & 1 o                                   ",
"                                  8 C D - : p ^ { ~ ] s 1 = & 1 o                                   ",
"                                  e v V S - F ^ >.) y E E > l 7 o                                   ",
"                                  e 3 Z V S ! ^ ) ~ x x T T = 7 o                                   ",
"                                  e 3 c Z V &.8.` ~ = = ; +.Y | o                                   ",
"                                  e 3 A c Z t.:.` Q z z J +.2 } o                                   ",
"                                  e i C p c _ :.` = s s Y l 2 r X                                   ",
"                                  e i G v p ,.[ ] q.7 1 1 2 2 r X                                   ",
"                                  e i 9.3 v ,.[ ] s 0 0 0 & 1 r X                                   ",
"                                  8 i <.<.3 ' [ ] 2 & ; & & } r X                                   ",
"                                  %.i / / i ' :.& Y = l ; 0 ..} X                                   ",
"                                  %.3 G 3 v _ 8.; 0 0 > +.> r | o                                   ",
"                                  e / k D - F { ; ; ; x x l q q o                                   ",
"                                  O $ f g = r.%...u < K , 6 X X                                     ",
"                                            X % O                                                   ",
"                                                                                                    ",
"                                                                                                    "
};
