/* XPM */
static char *xpm_[] = {
/* columns rows colors chars-per-pixel */
"60 60 204 2 ",
"   c #120C23",
".  c #160F23",
"X  c #180E22",
"o  c #180F24",
"O  c #171224",
"+  c #1B1123",
"@  c #191124",
"#  c #191026",
"$  c #191126",
"%  c #1D1427",
"&  c #1A1328",
"*  c #1B1528",
"=  c #1B1628",
"-  c #1E1628",
";  c #250F24",
":  c #2A0A20",
">  c #201629",
",  c #251429",
"<  c #2C152A",
"1  c #2F172B",
"2  c #22182B",
"3  c #20192D",
"4  c #211A2C",
"5  c #241F2F",
"6  c #381D2F",
"7  c #251F31",
"8  c #271F33",
"9  c #20242A",
"0  c #27342C",
"q  c #28342D",
"w  c #2E3D2E",
"e  c #292133",
"r  c #282232",
"t  c #2C2337",
"y  c #2B2534",
"u  c #2A2435",
"i  c #2F293B",
"p  c #322737",
"a  c #302939",
"s  c #31283B",
"d  c #312A3C",
"f  c #322D3E",
"g  c #342E3F",
"h  c #43061F",
"j  c #590820",
"k  c #401629",
"l  c #730826",
"z  c #641E2E",
"x  c #731F30",
"c  c #462030",
"v  c #4E2632",
"b  c #5A2B37",
"n  c #582C37",
"m  c #543B34",
"M  c #5B353D",
"N  c #642E38",
"B  c #682A39",
"V  c #7F2432",
"C  c #772935",
"Z  c #68343B",
"A  c #67393E",
"S  c #35472F",
"D  c #384A32",
"F  c #3C5633",
"G  c #4D4B35",
"H  c #4A5D3D",
"J  c #6D503B",
"K  c #4F6037",
"L  c #526A36",
"P  c #55663C",
"I  c #5D7837",
"U  c #647A3F",
"Y  c #393142",
"T  c #463040",
"R  c #403445",
"E  c #413849",
"W  c #4B3D4B",
"Q  c #793241",
"!  c #713C41",
"~  c #703F41",
"^  c #4B4D4E",
"/  c #474351",
"(  c #4B4352",
")  c #4C4454",
"_  c #4E4E57",
"`  c #504C58",
"'  c #6B444A",
"]  c #7C4643",
"[  c #794444",
"{  c #7D4746",
"}  c #7E4647",
"|  c #7F4B46",
" . c #6C7F40",
".. c #575663",
"X. c #645461",
"o. c #645C67",
"O. c #615E69",
"+. c #6D5E68",
"@. c #63606C",
"#. c #64616C",
"$. c #6D6A73",
"%. c #717179",
"&. c #75757E",
"*. c #8A0E2A",
"=. c #910C2C",
"-. c #B0092F",
";. c #8C313B",
":. c #A92A3E",
">. c #A1333D",
",. c #973840",
"<. c #9F3F46",
"1. c #9D3849",
"2. c #A73B43",
"3. c #8E454C",
"4. c #87514A",
"5. c #9B524B",
"6. c #90594D",
"7. c #965F57",
"8. c #BD4145",
"9. c #AF4E51",
"0. c #A65856",
"q. c #B75C54",
"w. c #956054",
"e. c #996253",
"r. c #9C6452",
"t. c #9F6755",
"y. c #A36B56",
"u. c #B1665E",
"i. c #AA7259",
"p. c #AF775E",
"a. c #886C6B",
"s. c #9A6F69",
"d. c #9A7877",
"f. c #9B7F7E",
"g. c #AF7B60",
"h. c #A1766D",
"j. c #C34449",
"k. c #CA5159",
"l. c #C55E5C",
"z. c #E36159",
"x. c #CB5667",
"c. c #C36B66",
"v. c #CE6B63",
"b. c #D86B63",
"n. c #DD6963",
"m. c #DA766A",
"M. c #E47163",
"N. c #718441",
"B. c #798D46",
"V. c #7F9045",
"C. c #839645",
"Z. c #889A49",
"A. c #BE8173",
"S. c #DD8272",
"D. c #EF806E",
"F. c #EB997F",
"G. c #7B7981",
"H. c #7C7D82",
"J. c #867B81",
"K. c #807E87",
"L. c #8E848B",
"P. c #87888E",
"I. c #8E8D93",
"U. c #8E8E93",
"Y. c #96969D",
"T. c #9C9A9F",
"R. c #B1918C",
"E. c #A09FA1",
"W. c #A6A3A5",
"Q. c #A5A5A7",
"!. c #ABA9A8",
"~. c #AAACAF",
"^. c #AEACB0",
"/. c #B3B1B2",
"(. c #B4B5B6",
"). c #BBBABD",
"_. c #D49780",
"`. c #C39E96",
"'. c #E39585",
"]. c #C9AF90",
"[. c #DAA290",
"{. c #EFA087",
"}. c #EEAC8E",
"|. c #EEB398",
" X c #CBAEAD",
".X c #DDB0A4",
"XX c #E9C9AF",
"oX c #F0CAA8",
"OX c #F7CBA8",
"+X c #F8D2AA",
"@X c #FBE2B2",
"#X c #FDEDBF",
"$X c #C1C2C4",
"%X c #C7C8CA",
"&X c #D0CFD0",
"*X c #D7D7D6",
"=X c #DBDCDC",
"-X c #F3D5CE",
";X c #E2DEDC",
":X c #F4EBDD",
">X c #E3E4E3",
",X c #E7E7E6",
"<X c #F1F2EF",
"1X c None",
/* pixels */
"1X1X1X1X1X1X1X1X1X1X1X1X1X1X1X1X1X1X1X1X1X1X1X1X1X1X1X1X1X1X1X1X1X1X1X1X1X1X1X1X1X1X1X1X1X1X1X1X1X1X1X1X1X1X1X1X1X1X1X1X",
"1X1X1X1X1X1X1X1X1X1X1X1X1X1X1X1X1X1X1X1X1X1X1X1X1X1X1X1X1X1X1X1X1X1X1X1X1X1X1X1X1X1X1X1X1X1X1X1X1X1X1X1X1X1X1X1X1X1X1X1X",
"1X1X1X1X1X1X1X1X1X1X1X1X1X1X1X1X1X1X1X1X1X1X1X1X1X1X1X1X1X1X1X1X1X1X1X1X1X1X1X1X1X1X1X1X1X1X1X1X1X1X1X1X1X1X1X1X1X1X1X1X",
"1X1X1X1X1X1X1X1X1X1X1X1X1X1X1X1X1X1X1X1X1X1X1X1X1X1X1X1X1X1X1X1X1X1X1X1X1X1X1X1X1X1X1X1X1X1X1X1X1X1X1X1X1X1X1X1X1X1X1X1X",
"1X1X1X1X1X1X1X1X1X1X1X1X1X1X1X1X1X1X1X1X1X1X1X1X1X1X1X1X1X1X>XQ.P.P.P.P.H.1X1X1X1X1X1X1X1X1X1X1X1X1X1X1X1X1X1X1X1X1X1X1X",
"1X1X1X1X1X1X1X1X1X1X1X1X1X1X1X1X1X1X1X1X1X1X1X1X1X1X1X1X1X/.$XI.%X$XT.T.T.1X1X1X1X1X1X1X1X1X1X1X1X1X1X1X1X1X1X1X1X1X1X1X",
"1X1X1X1X1X1X1X1X1X1X1X1X1X1X1X1X1X1X1X1X1X1X1X1X1X1X1X1XP.I.L.I.$X$X<X<X<X).$.1X1X1X1X1X1X1X1X1X1X1X1X1X1X1X1X1X1X1X1X1X",
"1X1X1X1X1X1X1X1X1X1X1X1X1X1X1X1X1X1X1X1X1X1X1X1X1X1X1XI.).&XT.E.^.^.,X<X%X(.Y...1X1X1X1X1X1X1X1X1X1X1X1X1X1X1X1X1X1X1X1X",
"1X1X1X1X1X1X1X1X1X1X1X1X1X1X1X1X1X1X1X1X1X1X1X1X1X1X1X~.(.*X&X(.*X^.R.=X=X,X(.G.#.o.1X1X1X1X1X1X1X1X1X1X1X1X1X1X1X1X1X1X",
"1X1X1X1X1X1X1X1X1X1X1X1X1X1X1X1X1X1X1X1X1X1X1X1X1X1XI.Y.Y.*X,X$X!..X0.L.&X^.).Q.$.%.1X1X1X1X1X1X1X1X1X1X1X1X1X1X1X1X1X1X",
"1X1X1X1X1X1X1X1X1X1X1X1X1X1X1X1X1X1X1X1X1X1X1X1X1XG...` &.Y.%X;Xw.S.{.0.X.X.H.T.O.1X1X1X1X1X1X1X1X1X1X1X1X1X1X1X1X1X1X1X",
"1X1X1X1X1X1X1X1X1X1X1X1X1X1X1X1X1X1X1X1X1X1X1X1X1X1Xf ( X.&.L.T.p.OX:X'.q.q.! / / 1X1X1X1X1X1X1X1X1X1X1X1X1X1X1X1X1X1X1X",
"1X1X1X1X1X1X1X1X1X1X1X1X1X1X1X1X1X1X1X1X1X1X1X1X1X1X1X( A.R.$.' [.(.G..X}.d.X.* i W 1X1X1X1X1X1X1X1X1X1X1X1X1X1X1X1X1X1X",
"1X1X1X1X1X1X1X1X1X1X1X1X1X1X1X1X1X1X1X1X1X1X1X1X1X1X1X8 9.3.+.u.A.7 n |._.6 ; $ 1X1X1X1X1X1X1X1X1X1X1X1X1X1X1X1X1X1X1X1X",
"1X1X1X1X1X1X1X1X1X1X1X1X1X1X1X1X1X1X1X1X1X1X1X1X1X] b 6 0.5.a.[.'.i.c.OX|.9.Q R 1X1X1X1X1X1X1X1X1X1X1X1X1X1X1X1X1X1X1X1X",
"1X1X1X1X1X1X1X1X1X1X1X1X1X1X1X1X1X1X1X1X1X1X1X1X] 4.| 6 6 T K.&X|.|.M.'.|.z.<.1X1X1X1X1X1X1X1X1X1X1X1X1X1X1X1X1X1X1X1X1X",
"1X1X1X1X1X1X1X1X1X1X1X1X1X1X1X1X1X1X1X1X1X1X1X] 6.i.t.v ; v U.^. X.X-Xd.5.0.^ 1X1X1X1X1X1X1X1X1X1X1X1X1X1X1X1X1X1X1X1X1X",
"1X1X1X1X1X1X1X1X1X1X1X1X1X1X1X1X1X1X1X1X1X1Xw.t.p.g.y.M V 2.U.(.!.;XY.E ( K.^ 1X1X1X1X1X1X1X1X1X1X1X1X1X1X1X1X1X1X1X1X1X",
"1X1X1X1X1X1X1X1X1X1X1X1X1X1X1X1X1X1X1X1X1Xe.i.i.y.i.p.' ,.8.M U.).*XU.$.&.$.W 1X1X1X1X1X1X1X1X1X1X1X1X1X1X1X1X1X1X1X1X1X",
"1X1X1X1X1X1X1X1X1X1X1X1X1X1X1X1X1X1X1X1Xe.i.g.i.4.[ p.4.7.b.C s &.^.*X*XU...1X1X1X1X1X1X1X1X1X1X1X1X1X1X1X1X1X1X1X1X1X1X",
"1X1X1X1X1X1X1X1X1X1X1X1X1X1X1X1X1X1Xs.e.p.p.i.4.N A i.4.L.'.j.z Y ..Y.U.( o.1X1X1X1X1X1X1X1X1X1X1X1X1X1X1X1X1X1X1X1X1X1X",
"1X1X1X1X1X1X1X1X1X1X1X1X1X1X1X1X1Xh.t.y.y.6.[ n < M p.4.U.;Xc.9.$.r f Y i 1X1X1X1X1X1X1X1X1X1X1X1X1X1X1X1X1X1X1X1X1X1X1X",
"1X1X1X1X1X1X1X1X1X1X1X1X1X1X1X1X1Xw.r.4.Z c < ; $ A p.4.L.<X)./.I.1 ;   i 1X1X1X1X1X1X1X1X] 5.1X1X1X1X1X1X1X1X1X1X1X1X1X",
"1X1X1X1X1X1X1X1X1X1X1X1X1X1X1X1X] y.7.A , 1X$ o v 7.g.4.L.<X<X<XY.v 6   $ 1X1X1X1X1X1X1X1X*.j : 1X1X1X1X1X1X1X1X1X1X1X1X",
"1X1X1X1X1X1X1X1X1X1X1X1X1X1X1X1X[ t.4.c p 1X& 1 [ y.g.| P.<X<X;XU.b 6   3 o.1X1X1X1X1X1X1X=.j 2 1X1X1X1X1X1X1X1X1X1X1X1X",
"1X1X1X1X1X1X1X1X1X1X1X1X1X1X1X1X] r.y.M > 1XX c 4.y.g.| L.<X,X(.J.n 6   o : $ 1X1X1X1X1XXX].g.v.1X1X1X1X1X1X1X1X1X1X1X1X",
"1X1X1X1X1X1X1X1X1X1X1X1X1X1X1X1X] t.i.! > - ; n 4.t.r.~ ^.,X$X^.J.' (   1 c n ! } } ] 1XoXS.M.M.v.1X1X1X1X1X1X1X1X1X1X1X",
"1X1X1X1X1X1X1X1X1X1X1X1X1X1X1X1X] r.p.4.B 2 ; N [ y.6.v Q.%X).(.J.X.#.X 6 N | t.t.y.q.oX'.V q.{.m.1X1X1X1X1X1X1X1X1X1X1X",
"1X1X1X1X1X1X1X1X1X1X1X1X1X1X1X1X] 7.y.6.Z < 1 N ! y.4.X.=X,X=X*XL.R 1X1X, v Z ! [ 3.9.'.2.h 0.D.n.1X1X1X1X1X1X1X1X1X1X1X",
"1X1X1X1X1X1X1X1X1X1X1X1X1X1X1X1X] 4.~ k k ; 1 A | e.! X.$X).!.!.U.T 1X1X1X- c c n N x >.x l x Q W 1X1X1X1X1X1X1X1X1X1X1X",
"1X1X1X1X1X1X1X1X1X1X1X1X1X1X1X1X1Xv V 2.q.M 1 [ 6.7.v X.W.!.!.!.T.E + 1X1X1X1X- c v , 1X9.k.l ; $ 1X1X1X1X1X1X1X1X1X1X1X",
"1X1X1X1X1X1X1X1X1X1X1X1X1X1X1X1X1X{ S.OX+X[.[ A e.e.c X.E.W.Q.E.+.7 X 1X1X1X1X1XB 6 - 1Xx.k.:.l : 1X1X1X1X1X1X1X1X1X1X1X",
"1X1X1X1X1X1X1X1X1X1X1X1X1X1X1X1X1XF.+X@X@XS.u.N r.6.1 g ` ` ` ` 9 0 2 r 1X1X1X1X1X1X1X1X-X-X[.C : 1X1X1X1X1X1X1X1X1X1X1X",
"1X1X1X1X1X1X1X1X1X1X1X1X1X1X1X1X1XF.S.}.}.0.;.Z 6.n 9 w 0 0 w w S L K 9 1X1X1X1X1X1X1X1X1. X*XQ : 1X1X1X1X1X1X1X1X1X1X1X",
"1X1X1X1X1X1X1X1X1X1X1X1X1X1X1X1X1Xj.8.b.S.! k [ [ % S  .w 2 0 9 D U C.H _ 1X1X1X1X1X1X1X1.`.*XQ : 1X1X1X1X1X1X1X1X1X1X1X",
"1X1X1X1X1X1X1X1X1X1X1X1X1X1X1X1X1X1XB x x k v M 3 q  .Z.F %   + q K C.C.P 1X1X1X1X1X1X1X:X<X*XQ : 1X1X1X1X1X1X1X1X1X1X1X",
"1X1X1X1X1X1X1X1X1X1X1X1X1X1X1X1X1X1X1X$ X 1 A c + K Z.Z.P 1Xg r % F N.C.V.P 1X1X1X1X1X1X'..X XQ : 1X1X1X1X1X1X1X1X1X1X1X",
"1X1X1X1X1X1X1X1X1X1X1X1X1X1X1X1X1X1X1X1X1X+.4.t - L C.Z.B.1X1X1X% 9 F I C.N.^ 1X1X1X1X1X-.:.3.l : 1X1X1X1X1X1X1X1X1X1X1X",
"1X1X1X1X1X1X1X1X1X1X1X1X1X1X1X1X1X1X1X1X1Xf.o.1X= H U N.Z.U 1X1X1X- * S I L y 1X1X1X1X1X-.-.l l : 1X1X1X1X1X1X1X1X1X1X1X",
"1X1X1X1X1X1X1X1X1X1X1X1X1X1X1X1X1X1X1X1X1X1X1X1X3 P J J U U 1X1X1X1X$ w F w % 1X1X1X1X1X=.l j h - 1X1X1X1X1X1X1X1X1X1X1X",
"1X1X1X1X1X1X1X1X1X1X1X1X1X1X1X1X1X1X1X1X1X1X1X1Xq G A.c.m  .1X1X1Xy - w F t 1X1X1X1X1X1X1X1X1X1X1X1X1X1X1X1X1X1X1X1X1X1X",
"1X1X1X1X1X1X1X1X1X1X1X1X1X1X1X1X1X1X1X1X1X1X1XH G a.+Xm.v H 1X1X1XX o 9 0 2 1X1X1X1X1X1X1X1X1X1X1X1X1X1X1X1X1X1X1X1X1X1X",
"1X1X1X1X1X1X1X1X1X1X1X1X1X1X1X1X1X1X1X1X1X1XD L m l.b.;.t 1X1X1X- $ 9 q % 2 1X1X1X1X1X1X1X1X1X1X1X1X1X1X1X1X1X1X1X1X1X1X",
"1X1X1X1X1X1X1X1X1X1X1X1X1X1X1X1X1X1X1X1X1XF L I K v k + 1X1X1X1X& o 3 w 9 1X1X1X1X1X1X1X1X1X1X1X1X1X1X1X1X1X1X1X1X1X1X1X",
"1X1X1X1X1X1X1X1X1X1X1X1X1X1X1X1X1X1X> 1X1XD L I I D 1X1X1X1X1X1X1XX o 7 $ 1X1X1X1Xy 1X1X1X1X1X1X1X1X1X1X1X1X1X1X1X1X1X1X",
"1X1X1X1X1X1X1X1X1X1X1X1X1X- 1X1X1X1X1X1X1Xn w L K H 1X1X1X1X1X1X1X1.c 1X1X1X1Xp 1X1X1X1X1X1X1X1X1X1X1X1X1X1X1X1X1X1X1X1X",
"1X1X1X1X1X1X1X1X1X1X1X1X1X1X1X1X1X1Xp 1Xh.l.v S S q O 3 s t o X 2.z.k.B 1X1X1X1X1Xp & > 1X1X1X1X1X1X1Xp 1X1X1X1X1X1X1X1X",
"1X1X1X1X1X1X1X1X1X* $ 1X1X1X> - % r 3 6 `.{.9.6 3 o   * t 8 X z k.{.}.0.< o o o o o X - 2 i r 1X1X1X1X1X1X1X1X1X1X1X1X1X",
"1X1X1X1X1X1X1X1X1X1X1X1Xy 7 $ 8 Y 8 1 u.@X@XOXc.v ; ;         :.z.D.M.|._.0.Q 6 o o o * 2   Y d 1X> 1X1X1X1X1X1X1X1X1X1X",
"1X1X1X1X1X1X- - - * * u 3 o 7 Y t - 6 b.OX@X#X:X[.c.3.;       ;.8.8.8.k.M.|.'.9.k   o 3 2 $ - 3 u 3 . 1X1XO O 1X1X1X1X1X",
"1X1X1X1X1X1X1X1X1X. t ` t s ( s s * ; V >.i.F.}.|.}.S.N       o 6 1 ; ; ;.;.;.z + o t s Y t   9 ( ( y $ 1X1X1X1X1X1X1X1X",
"1X1X1X1X1X1X1X> + + + + % R ( (     o 8 . < C ;.C C x k   8 t t d 8   8 7 t 3 2 s 3 E g f Y   $ $ 1X1Xp + 1X1X1X1X1X1X1X",
"1X1X1X1X1X1X1X1Xf f f f y 1X7 d 9 Y 3 t - d d t 3 X o 7 Y E t u - Y Y Y t Y E E E 3 r Y 7 s 1Xp p 1X1X1X1X1X1X1X1X1X1X1X",
"1X1X1X1X1X1X1X1X1X1X1X1X1X1X1X1X1Xs $ X 9 d 5 r ) ( Y Y E E , + $ 7 u 3 % 7 y 5 $ $ $ . % 1X- 1X1X> - 1X1X1X1X1X1X1X1X1X",
"1X1X1X1X1X1X1X1X1X1X1X1XO X X O 1X1X1X1X1X1X1X1X1Xu > 3 * d O.#.@.O.@.#.r - 1X1X1X1X1X1X1X1X1X1X1X1X1X1X1X1X1X1X1X1X1X1X",
"1X1X1X1X1X1X1X1X1X1X1X1XO $ $ O 1X1X1X1X1X1X1X1X> 1X1X1X1X> > s r d Y 1X1X1X1X1X1X> 1X1Xt + 1X1X1X1X1X1X1X1X1X1X1X1X1X1X",
"1X1X1X1X1X1X1X1X1X1X1X1X1X1X1X1X1X1X1X1X1X1X1X1X1X1X1X1X1X1X1X1X1X1X1X1X1X1X1X1X1X1X1X1X1X1X1X1X1X1X1X1X1X1X1X1X1X1X1X1X",
"1X1X1X1X1X1X1X1X1X1X1X1X1X1X1X1X1X1X1X1X1X1X1X1X1X1X1X1X1X1X1X1X1X1X1X1X1X1X1X1X1X1X1X1X1X1X1X1X1X1X1X1X1X1X1X1X1X1X1X1X",
"1X1X1X1X1X1X1X1X1X1X1X1X1X1X1X1X1X1X1X1X1X1X1X1X1X1X1X1X1X1X1X1X1X1X1X1X1X1X1X1X1X1X1X1X1X1X1X1X1X1X1X1X1X1X1X1X1X1X1X1X",
"1X1X1X1X1X1X1X1X1X1X1X1X1X1X1X1X1X1X1X1X1X1X1X1X1X1X1X1X1X1X1X1X1X1X1X1X1X1X1X1X1X1X1X1X1X1X1X1X1X1X1X1X1X1X1X1X1X1X1X1X"
};
