/* XPM */
static char *a95eb32e6c194ea29b2d39e970bd3a80fzlcGtAKsjpZzAm0[] = {
/* columns rows colors chars-per-pixel */
"50 50 135 2 ",
"   c None",
".  c #000000",
"X  c #0C0504",
"o  c #100706",
"O  c #130807",
"+  c #140A08",
"@  c #1C0C09",
"#  c #220F0C",
"$  c #2D0E0D",
"%  c #24110E",
"&  c #2E110F",
"*  c #30120F",
"=  c #2B1610",
"-  c #341310",
";  c #361813",
":  c #3C1B15",
">  c #3F1F18",
",  c #411814",
"<  c #491B17",
"1  c #401F18",
"2  c #541E1A",
"3  c #581D1A",
"4  c #422119",
"5  c #4F231C",
"6  c #52251D",
"7  c #5E231D",
"8  c #52281F",
"9  c #61231E",
"0  c #552920",
"q  c #5C2D23",
"w  c #662720",
"e  c #602B22",
"r  c #6A2F26",
"t  c #732B24",
"y  c #7B2D27",
"u  c #673227",
"i  c #753429",
"p  c #7C342A",
"a  c #7B3C2F",
"s  c #7E3D30",
"d  c #852C28",
"f  c #86322A",
"g  c #8C352C",
"h  c #90362D",
"j  c #96392F",
"k  c #8B3E31",
"l  c #973930",
"z  c #9A3A31",
"x  c #A43E34",
"c  c #8D4536",
"v  c #954235",
"b  c #9B4537",
"n  c #9E4638",
"m  c #964939",
"M  c #AC4136",
"N  c #A64A3B",
"B  c #A94C3C",
"V  c #BC473C",
"C  c #BF493C",
"Z  c #A5503E",
"A  c #AC503F",
"S  c #C54B3E",
"D  c #AE5442",
"F  c #B15643",
"G  c #BB5342",
"H  c #B55844",
"J  c #CC4E41",
"K  c #D04F42",
"L  c #C65846",
"P  c #CC5B48",
"I  c #D25F4B",
"U  c #C7604B",
"Y  c #CB614C",
"T  c #D2624D",
"R  c #DD624E",
"E  c #D56650",
"W  c #D36650",
"Q  c #DC6650",
"!  c #DE6450",
"~  c #D76851",
"^  c #D76852",
"/  c #D76952",
"(  c #D86952",
")  c #DA6A53",
"_  c #DB6A53",
"`  c #DC6A53",
"'  c #DE6C54",
"]  c #DC6A53",
"[  c #E0634F",
"{  c #E0644F",
"}  c #E1644F",
"|  c #E0644F",
" . c #E16450",
".. c #E26450",
"X. c #E06650",
"o. c #E06651",
"O. c #E16651",
"+. c #E36752",
"@. c #E46550",
"#. c #E46551",
"$. c #E46752",
"%. c #E16650",
"&. c #E26852",
"*. c #E66A53",
"=. c #E56B54",
"-. c #E66B54",
";. c #E16D55",
":. c #E56F57",
">. c #E66F57",
",. c #E46B54",
"<. c #E86C55",
"1. c #E86E57",
"2. c #E86F57",
"3. c #E86E57",
"4. c #E77057",
"5. c #E97158",
"6. c #EA7158",
"7. c #EA7159",
"8. c #EB7259",
"9. c #EC7058",
"0. c #EC7259",
"q. c #EC7359",
"w. c #EC735A",
"e. c #ED735A",
"r. c #EE735A",
"t. c #EE745A",
"y. c #EF745A",
"u. c #EF745B",
"i. c #EC7259",
"p. c #F0745B",
"a. c #F1755B",
"s. c #F2755C",
"d. c #F2765C",
"f. c #F3765C",
"g. c #F1755C",
/* pixels */
". . . . . . . . . . .     X . . . . . . . . . . . . . . . . . . . . . . X     . . . . . . . . . . . ",
". : i i i i a a a a @ < z X 5 i i i i a a a a a a a a a a a a a a a s 0 X z < @ i i i i a a a s 1 . ",
". i @.} [ @.r.y.y.8.4 , l X n @.} [ *.y.y.y.y.y.y.y.y.y.y.y.y.y.y.y.d.Z X l , : R } [ X.r.y.y.d.s . ",
". i } R R X.8.8.8.:.1 , l X b } R R &.8.8.8.8.8.8.8.8.8.8.8.8.8.8.8.y.Z X l , : R R R R <.8.8.y.a . ",
"O v [ R R X.8.8.8.:.1 , l X b } R R &.8.8.8.8.8.8.8.8.8.8.8.8.8.8.8.y.Z X l , : R R R R :.8.8.y.a . ",
"  R R R R X.8.8.8.:.1 , l X b } R R &.8.8.8.8.8.8.8.8.8.8.8.8.8.8.8.y.Z X l , : R R R R :.8.8.y.a . ",
"  I R R R X.8.8.8.:.1 , l X b } R R &.8.8.8.8.8.8.8.8.8.8.8.8.8.8.8.y.Z X l , : R R R R :.8.8.y.a . ",
"X k [ R R X.8.8.8.:.1 , l X b } R R &.8.8.8.8.8.8.8.8.8.8.8.8.8.8.8.y.Z X l , : R R R R <.8.8.y.a . ",
". i } R R X.8.8.8.:.1 , l X b } R R &.8.8.8.8.8.8.8.8.8.8.8.8.8.8.8.y.Z X l , : R R R R <.8.8.y.a . ",
". i [ R R X.8.8.8.:.> , l X b } R R &.8.8.8.8.8.8.8.8.8.8.8.8.8.8.8.y.Z X l , : R R R R <.8.8.y.a . ",
". % 6 6 5 6 0 0 0 8 O 2 x X ; 6 5 5 6 0 0 0 0 0 0 0 0 0 0 0 0 0 0 0 0 : X x 2 O 5 5 5 6 8 0 0 0 = . ",
"- * $ $ $ $ & * * & , M J t - * * * * * * * * & & & & * * * * * * * & - t J M , & * * * * * * & ; ; ",
"  d y y y y f f f f g h g g f f f f f f f f f x S S x f f f f f f f f f g g h g f f f f f f f f g   ",
"X X X X X X X X X X X X X X X X X X X X X X X @ x x @ X X X X X X X X X X X X X X X X X X X X X X X ",
". 8 B B B B F F F F F F F F F F F F F F F H m X y y X k B N N A F F F F F F F F F F F F H H H H q . ",
". i @.[ [ X.r.r.y.y.y.y.y.y.y.y.y.y.y.y.y.a.Y + y y O G X.[ [ <.y.y.y.y.y.y.y.y.y.y.y.y.y.y.y.d.s . ",
". i } R R X.8.8.8.8.8.8.8.8.8.8.8.8.8.8.8.r.U + y y O G R R R =.8.8.8.8.8.8.8.8.8.8.8.8.8.8.8.y.a . ",
". i } R R X.8.8.8.8.8.8.8.8.8.8.8.8.8.8.8.r.U + y y O G R R R =.8.8.8.8.8.8.8.8.8.8.8.8.8.8.8.y.a . ",
". i } R R X.8.8.8.8.8.8.8.8.8.8.8.8.8.8.8.r.U + y y O G R R R =.8.8.8.8.8.8.8.8.8.8.8.8.8.8.8.y.a . ",
". i } R R X.8.8.8.8.8.8.8.8.8.8.8.8.8.8.8.r.U + y y O G R R R =.8.8.8.8.8.8.8.8.8.8.8.8.8.8.8.y.a . ",
". i } R R X.8.8.8.8.8.8.8.8.8.8.8.8.8.8.8.r.U + y y O G R R R =.8.8.8.8.8.8.8.8.8.8.8.8.8.8.8.y.a . ",
". i X.R R X.r.r.r.r.r.r.r.r.r.r.r.r.r.r.r.y.Y + y y O G [ R R =.r.r.r.r.r.r.r.r.r.r.r.r.r.r.r.a.a . ",
". r P P P P ^ ( ^ ^ ^ ^ ^ ^ ^ ^ ^ ( ( ( ( ( H O y y o B P P P T ( ( ^ ^ ^ ^ ^ ^ ^ ^ ^ ( ( ( ( ( i . ",
". o % % % % % % % % % % % % % % % % % % % % @ X j j X @ % % % % % % % % % % % % % % % % % % % % O . ",
"  9 3 3 3 3 7 7 7 7 7 7 7 7 7 7 7 7 7 7 7 7 7 f J J f 7 7 7 7 7 7 7 7 7 7 7 7 7 7 7 7 7 7 7 7 7 w   ",
"  9 3 3 3 3 7 7 7 7 t V K l 9 7 7 7 7 7 7 7 7 7 7 7 7 7 7 t S J p 7 7 9 l K V t 7 7 7 7 7 7 7 7 w   ",
". O % % % % % % % % X 9 M @ O % % % % % % % % % % % % % % 1 Y Q 0 % % + @ M 9 X # # # % % % % % O . ",
". r P P P P ^ ( ( W : , l X k P P P I ^ ^ ^ ^ ^ ^ ^ ( ( ( ' 8.r.;.( ` m X l , ; L P P P E ( ( ( i . ",
". i X.R R X.r.r.r.4.1 , l X b X.R R &.r.r.r.r.r.r.r.r.r.r.r.8.8.r.r.a.Z X l , : R R R R <.r.r.a.a . ",
". i } R R X.8.8.8.:.1 , l X b } R R &.8.8.8.8.8.8.8.8.8.8.8.8.8.8.8.y.Z X l , : R R R R <.8.8.y.a . ",
". i } R R X.8.8.8.:.1 , l X b } R R &.8.8.8.8.8.8.8.8.8.8.8.8.8.8.8.y.Z X l , : R R R R <.8.8.y.a . ",
". i } R R X.8.8.8.:.1 , l X b } R R &.8.8.8.8.8.8.8.8.8.8.8.8.8.8.8.y.Z X l , : R R R R <.8.8.y.a . ",
". i } R R X.8.8.8.:.1 , l X b } R R &.8.8.8.8.8.8.8.8.8.8.8.8.8.8.8.y.Z X l , : R R R R :.8.8.y.a . ",
". i } R R X.8.8.8.:.1 , l X b } R R &.8.8.8.8.8.8.8.8.8.8.8.8.8.8.8.y.Z X l , : R R R R <.8.8.y.a . ",
". i @.[ [ X.r.y.y.8.4 , l X n @.[ [ *.y.y.y.y.y.y.y.y.y.y.y.y.y.y.y.d.Z X l , : R } [ X.8.y.y.d.s . ",
". 8 B N N B F F F D = , l X i B N N B F F F F F F F F F F F F H H H H a X l , & N N N B D F F H q . ",
"X X X X X X X X X X X y V - X X X X X X X X X X X X X X X X X X X X X X - V y X X X X X X X X X X X ",
"  d y y y y f f f f j C S M f f f f f f f f f g g g g f f f f f f f f f M S C j f f f f f f f f g   ",
"- * $ $ $ $ & * * * & & & & * * * * * * * * * 7 S S 7 * * * * * * * * * & & & & * * * * * * * & ; ; ",
". % 6 5 5 6 0 0 0 0 0 0 8 8 8 0 0 0 0 0 0 0 4 X f f X 1 6 6 6 6 0 0 0 8 8 8 0 0 0 0 0 0 0 0 0 0 = . ",
". i [ R R X.8.8.8.8.8.8.8.8.8.8.8.8.8.8.8.r.U + y y O G R R R =.8.8.8.8.8.8.8.8.8.8.8.8.8.8.8.y.a . ",
". i } R R X.8.8.8.8.8.8.8.8.8.8.8.8.8.8.8.r.U + y y O G R R R =.8.8.8.8.8.8.8.8.8.8.8.8.8.8.8.y.a . ",
". i } R R X.8.8.8.8.8.8.8.8.8.8.8.8.8.8.8.r.U + y y O G R R R =.8.8.8.8.8.8.8.8.8.8.8.8.8.8.8.y.a . ",
". i } R R X.8.8.8.8.8.8.8.8.8.8.8.8.8.8.8.r.U + y y O G R R R =.8.8.8.8.8.8.8.8.8.8.8.8.8.8.8.y.a . ",
". i } R R X.8.8.8.8.8.8.8.8.8.8.8.8.8.8.8.r.U + y y O G R R R =.8.8.8.8.8.8.8.8.8.8.8.8.8.8.8.y.a . ",
". i } R R X.8.8.8.8.8.8.8.8.8.8.8.8.8.8.8.r.U + y y O G R R R =.8.8.8.8.8.8.8.8.8.8.8.8.8.8.8.y.a . ",
". i } R R X.8.8.8.8.8.8.8.8.8.8.8.8.8.8.8.r.U + y y O G R R R =.8.8.8.8.8.8.8.8.8.8.8.8.8.8.8.y.a . ",
". i @.} [ X.8.y.y.y.y.y.y.y.y.y.y.y.y.y.y.a.Y + y y O G X.} [ <.y.y.y.y.y.y.y.y.y.y.y.y.y.y.y.d.s . ",
". : i i b Q ` c a a a a a a a a a a a a a s u X f f X e i i i a a a a a a a a a a a a a a a a s 1 . ",
". . . . @     X . . . . . . . . . . . . . . . .     . . . . . . . . . . . . . . . . . . . . . . . . "
};
